<svg xmlns="http://www.w3.org/2000/svg" xmlns:xlink="http://www.w3.org/1999/xlink" width="88px" height="16px" viewBox="0 0 88 16" version="1.1">
<g id="surface1">
<path style=" stroke:none;fill-rule:nonzero;fill:#0bac9a;fill-opacity:1;" d="M 0 7.992188 L 0 15.988281 L 88 15.988281 L 88 0 L 0 0 Z M 30.457031 2.140625 C 30.980469 2.207031 31.769531 2.449219 32.144531 2.65625 C 32.480469 2.847656 32.511719 2.875 33.53125 3.828125 C 33.96875 4.234375 34.433594 4.667969 34.5625 4.789062 C 34.875 5.070312 36.292969 6.382812 36.945312 7 C 37.222656 7.257812 37.472656 7.492188 37.507812 7.511719 C 37.554688 7.542969 38.320312 7.554688 40.863281 7.554688 L 44.15625 7.554688 L 44.316406 7.457031 C 44.414062 7.402344 44.660156 7.3125 44.863281 7.257812 C 46.28125 6.867188 48.171875 7.242188 48.375 7.953125 C 48.472656 8.304688 47.945312 8.703125 47.144531 8.878906 C 46.6875 8.976562 45.734375 8.984375 45.253906 8.886719 C 44.878906 8.8125 44.324219 8.621094 44.324219 8.566406 C 44.324219 8.550781 44.246094 8.53125 44.148438 8.53125 C 44.039062 8.53125 42.800781 8.527344 41.394531 8.523438 L 38.824219 8.515625 L 38.84375 8.609375 C 38.859375 8.695312 39.003906 8.847656 39.769531 9.535156 C 39.902344 9.648438 40.007812 9.75 40.007812 9.761719 C 40.007812 9.765625 40.113281 9.871094 40.242188 9.988281 C 40.886719 10.566406 41.359375 11.003906 41.765625 11.394531 C 42.019531 11.628906 42.257812 11.835938 42.296875 11.851562 C 42.335938 11.871094 42.371094 11.90625 42.371094 11.925781 C 42.371094 11.949219 42.476562 12.0625 42.605469 12.183594 C 42.917969 12.464844 43.023438 12.605469 43.023438 12.722656 C 43.023438 13.011719 42.191406 13.277344 41.515625 13.207031 C 40.976562 13.148438 40.683594 12.957031 39.640625 11.972656 C 39.492188 11.835938 39.25 11.605469 39.09375 11.46875 C 38.933594 11.328125 38.671875 11.085938 38.5 10.925781 C 38.328125 10.769531 38.011719 10.480469 37.800781 10.289062 C 37.578125 10.097656 37.398438 9.9375 37.398438 9.925781 C 37.398438 9.914062 37.230469 9.761719 36.601562 9.199219 C 36.25 8.898438 36 8.785156 35.421875 8.683594 C 35.175781 8.644531 34.664062 8.632812 32.378906 8.632812 C 29.164062 8.632812 29.269531 8.625 28.886719 8.976562 C 28.761719 9.097656 28.542969 9.300781 28.386719 9.4375 C 28.234375 9.570312 28.109375 9.695312 28.109375 9.714844 C 28.109375 9.726562 28.011719 9.816406 27.898438 9.914062 C 27.785156 10.011719 27.6875 10.128906 27.679688 10.179688 L 27.664062 10.269531 L 28.59375 10.28125 L 29.519531 10.289062 L 29.773438 10.1875 C 30.53125 9.890625 31.445312 9.875 32.128906 10.144531 C 32.878906 10.4375 32.683594 11.003906 31.777344 11.199219 C 30.996094 11.363281 30.042969 11.238281 29.617188 10.917969 L 29.488281 10.828125 L 25.4375 10.828125 C 21.789062 10.828125 21.347656 10.832031 20.980469 10.882812 C 20.378906 10.972656 19.980469 11.160156 19.605469 11.539062 C 19.425781 11.714844 19.207031 11.929688 19.097656 12.023438 C 17.949219 13.089844 18.007812 13.050781 17.503906 13.15625 C 17.144531 13.234375 16.875 13.238281 16.507812 13.171875 C 15.980469 13.082031 15.683594 12.828125 15.816406 12.578125 C 15.863281 12.5 16.117188 12.222656 16.394531 11.960938 C 16.664062 11.695312 17.03125 11.347656 17.199219 11.183594 C 17.378906 11.019531 17.519531 10.871094 17.519531 10.851562 C 17.519531 10.839844 16.882812 10.828125 16.101562 10.828125 L 14.675781 10.828125 L 14.265625 10.992188 C 13.589844 11.265625 12.5625 11.34375 11.773438 11.195312 C 11.269531 11.097656 10.738281 10.84375 10.550781 10.609375 C 10.414062 10.441406 10.40625 10.402344 10.503906 10.214844 C 10.738281 9.734375 11.585938 9.4375 12.710938 9.433594 C 13.363281 9.433594 13.867188 9.523438 14.363281 9.730469 L 14.707031 9.875 L 19.035156 9.898438 C 23.867188 9.925781 24.257812 9.914062 24.894531 9.742188 C 25.480469 9.578125 25.59375 9.492188 26.96875 8.179688 C 27.199219 7.957031 27.460938 7.707031 27.550781 7.625 C 27.636719 7.542969 27.785156 7.40625 27.867188 7.316406 C 28.121094 7.050781 28.414062 6.886719 28.761719 6.8125 C 29.351562 6.6875 29.976562 6.742188 30.441406 6.957031 C 30.660156 7.054688 30.679688 7.085938 30.667969 7.308594 L 30.660156 7.554688 L 32.992188 7.554688 L 33.375 7.40625 C 33.742188 7.269531 33.765625 7.246094 33.796875 7.058594 C 33.847656 6.765625 33.707031 6.582031 32.835938 5.816406 C 32.714844 5.707031 32.511719 5.519531 32.390625 5.398438 C 32.273438 5.28125 32.105469 5.128906 32.015625 5.0625 C 31.933594 5 31.859375 4.929688 31.859375 4.921875 C 31.859375 4.90625 31.679688 4.742188 31.46875 4.550781 C 31.25 4.359375 30.890625 4.035156 30.667969 3.832031 C 30.195312 3.394531 29.886719 3.238281 29.488281 3.238281 C 28.964844 3.238281 28.492188 3.425781 28.175781 3.761719 C 28.101562 3.835938 27.914062 4.011719 27.753906 4.160156 C 27.589844 4.300781 27.460938 4.429688 27.460938 4.445312 C 27.460938 4.457031 27.402344 4.511719 27.328125 4.570312 C 27.253906 4.625 27.003906 4.851562 26.765625 5.074219 C 25.796875 5.992188 25.390625 6.371094 25.128906 6.605469 C 24.972656 6.738281 24.851562 6.855469 24.851562 6.867188 C 24.851562 6.875 24.753906 6.972656 24.640625 7.074219 C 24.519531 7.179688 23.972656 7.691406 23.417969 8.210938 C 22.863281 8.726562 22.335938 9.183594 22.246094 9.222656 C 22.089844 9.285156 21.960938 9.292969 20.859375 9.300781 C 19.890625 9.3125 19.628906 9.304688 19.597656 9.269531 C 19.554688 9.230469 20.335938 8.449219 21.070312 7.796875 C 21.175781 7.699219 21.265625 7.617188 21.265625 7.605469 C 21.265625 7.597656 21.371094 7.496094 21.503906 7.378906 C 21.632812 7.261719 22.113281 6.808594 22.570312 6.375 C 23.027344 5.9375 23.464844 5.519531 23.546875 5.445312 C 23.628906 5.371094 24.011719 5.007812 24.402344 4.636719 C 26.398438 2.738281 26.40625 2.730469 26.9375 2.511719 C 27.46875 2.292969 28.175781 2.132812 28.84375 2.078125 C 29.164062 2.054688 30 2.085938 30.457031 2.140625 Z M 70.15625 6.132812 C 70.703125 6.246094 71.09375 6.484375 71.175781 6.757812 C 71.207031 6.851562 71.214844 7.46875 71.199219 8.128906 C 71.175781 9.308594 71.175781 9.328125 70.988281 9.476562 C 70.59375 9.789062 70.132812 9.90625 69.1875 9.9375 C 68.222656 9.972656 67.441406 9.8125 67.035156 9.496094 C 66.855469 9.363281 66.855469 9.335938 66.855469 7.976562 C 66.855469 6.457031 66.839844 6.5 67.378906 6.261719 C 67.980469 5.992188 69.21875 5.933594 70.15625 6.132812 Z M 53.6875 6.109375 C 53.753906 6.1875 53.792969 6.292969 54.226562 7.417969 C 54.339844 7.726562 54.488281 8.109375 54.550781 8.28125 C 54.617188 8.445312 54.78125 8.871094 54.917969 9.222656 C 55.058594 9.582031 55.136719 9.871094 55.097656 9.890625 C 55.058594 9.90625 54.714844 9.914062 54.339844 9.910156 L 53.65625 9.898438 L 53.605469 9.746094 C 53.574219 9.664062 53.523438 9.507812 53.5 9.398438 L 53.445312 9.207031 L 51.675781 9.207031 L 51.578125 9.5 C 51.429688 9.949219 51.503906 9.914062 50.753906 9.914062 C 49.980469 9.914062 50.011719 9.988281 50.347656 9.128906 C 50.484375 8.792969 50.691406 8.265625 50.804688 7.960938 C 51.261719 6.757812 51.503906 6.117188 51.535156 6.078125 C 51.5625 6.046875 51.847656 6.035156 52.597656 6.035156 C 53.582031 6.035156 53.621094 6.039062 53.6875 6.109375 Z M 61.804688 6.324219 L 61.804688 6.59375 L 60.621094 6.609375 L 59.441406 6.628906 L 59.441406 7.742188 L 60.363281 7.75 L 61.273438 7.761719 L 61.273438 8.332031 L 59.398438 8.332031 L 59.398438 9.917969 L 58.691406 9.910156 L 57.972656 9.898438 L 57.949219 8.011719 C 57.941406 6.972656 57.949219 6.101562 57.972656 6.078125 C 58 6.042969 58.429688 6.035156 59.90625 6.042969 L 61.804688 6.054688 Z M 63.863281 7.695312 L 63.882812 9.339844 L 65.085938 9.347656 L 66.285156 9.359375 L 66.285156 9.898438 L 62.457031 9.898438 L 62.429688 8.011719 C 62.421875 6.972656 62.429688 6.101562 62.457031 6.078125 C 62.480469 6.046875 62.675781 6.035156 63.164062 6.042969 L 63.839844 6.054688 Z M 73.203125 6.0625 C 73.242188 6.09375 73.773438 8.058594 73.871094 8.554688 C 73.902344 8.710938 73.953125 8.835938 73.984375 8.835938 C 74.019531 8.835938 74.066406 8.742188 74.089844 8.625 C 74.246094 7.875 74.652344 6.113281 74.679688 6.078125 C 74.726562 6.023438 75.988281 6.019531 76.070312 6.078125 C 76.121094 6.109375 76.429688 7.324219 76.722656 8.632812 C 76.804688 9.035156 76.871094 8.910156 77.121094 7.808594 C 77.34375 6.835938 77.472656 6.324219 77.539062 6.144531 L 77.578125 6.035156 L 78.207031 6.042969 L 78.832031 6.054688 L 78.808594 6.1875 C 78.800781 6.261719 78.734375 6.511719 78.671875 6.746094 C 78.605469 6.976562 78.402344 7.738281 78.222656 8.433594 C 78.042969 9.125 77.871094 9.746094 77.847656 9.804688 L 77.808594 9.914062 L 76.835938 9.914062 C 76.300781 9.914062 75.859375 9.914062 75.859375 9.90625 C 75.859375 9.902344 75.785156 9.617188 75.695312 9.273438 C 75.605469 8.929688 75.507812 8.542969 75.484375 8.414062 C 75.394531 8.035156 75.320312 8.0625 75.207031 8.507812 C 75.148438 8.730469 75.042969 9.140625 74.972656 9.410156 L 74.839844 9.898438 L 72.8125 9.898438 L 72.296875 8.011719 C 72.019531 6.972656 71.808594 6.101562 71.824219 6.078125 C 71.867188 6.03125 73.128906 6.015625 73.203125 6.0625 Z M 73.203125 6.0625 "/>
<path style=" stroke:none;fill-rule:nonzero;fill:#0bac9a;fill-opacity:1;" d="M 45.988281 7.628906 C 45.367188 7.695312 45.101562 7.953125 45.378906 8.210938 C 45.539062 8.363281 45.890625 8.464844 46.25 8.464844 C 46.476562 8.464844 46.941406 8.359375 47.070312 8.273438 C 47.242188 8.164062 47.226562 7.878906 47.039062 7.773438 C 46.8125 7.644531 46.371094 7.585938 45.988281 7.628906 Z M 45.988281 7.628906 "/>
<path style=" stroke:none;fill-rule:nonzero;fill:#0bac9a;fill-opacity:1;" d="M 11.976562 10.039062 C 11.421875 10.246094 11.636719 10.667969 12.3125 10.738281 C 12.679688 10.777344 12.964844 10.75 13.25 10.648438 C 13.550781 10.539062 13.605469 10.285156 13.371094 10.125 C 13.0625 9.925781 12.394531 9.886719 11.976562 10.039062 Z M 11.976562 10.039062 "/>
<path style=" stroke:none;fill-rule:nonzero;fill:#0bac9a;fill-opacity:1;" d="M 68.640625 6.617188 C 68.542969 6.632812 68.421875 6.6875 68.371094 6.730469 C 68.242188 6.851562 68.25 9.117188 68.378906 9.21875 C 68.605469 9.394531 69.097656 9.429688 69.480469 9.296875 L 69.707031 9.214844 L 69.730469 8.03125 C 69.75 7.003906 69.738281 6.832031 69.625 6.746094 C 69.4375 6.59375 69.023438 6.539062 68.640625 6.617188 Z M 68.640625 6.617188 "/>
<path style=" stroke:none;fill-rule:nonzero;fill:#0bac9a;fill-opacity:1;" d="M 52.207031 7.765625 C 52.035156 8.234375 51.902344 8.628906 51.902344 8.640625 C 51.902344 8.65625 52.195312 8.667969 52.554688 8.667969 C 52.914062 8.667969 53.207031 8.65625 53.207031 8.640625 C 53.207031 8.628906 53.132812 8.433594 53.050781 8.210938 C 52.972656 7.988281 52.832031 7.617188 52.757812 7.386719 C 52.679688 7.152344 52.589844 6.953125 52.554688 6.9375 C 52.53125 6.925781 52.367188 7.296875 52.207031 7.765625 Z M 52.207031 7.765625 "/>
</g>
</svg>